<?xml version="1.0" standalone="no"?>
<!DOCTYPE svg PUBLIC "-//W3C//DTD SVG 20010904//EN"
 "http://www.w3.org/TR/2001/REC-SVG-20010904/DTD/svg10.dtd">
<svg version="1.0" xmlns="http://www.w3.org/2000/svg"
 width="601.000000pt" height="451.000000pt" viewBox="0 0 601.000000 451.000000"
 preserveAspectRatio="xMidYMid meet">

<g transform="translate(0.000000,451.000000) scale(0.100000,-0.100000)"
fill="#000000" stroke="none">
<path d="M3735 4433 c-478 -56 -837 -416 -887 -889 -14 -136 -1 -290 36 -411
24 -80 86 -216 125 -278 l20 -30 -50 -135 c-27 -74 -58 -156 -69 -182 -20 -47
-26 -102 -14 -133 9 -23 61 -47 87 -39 12 3 108 45 214 91 l191 85 69 -27
c121 -49 200 -66 343 -72 234 -10 417 41 609 170 247 165 402 434 433 750 52
528 -326 1012 -852 1092 -88 14 -184 17 -255 8z m-286 -858 c41 -21 79 -70 87
-112 16 -86 -84 -184 -171 -167 -73 13 -134 98 -121 168 17 92 127 152 205
111z m461 -3 c49 -24 80 -75 80 -129 0 -115 -103 -182 -204 -133 -55 26 -76
58 -83 123 -4 43 -1 58 19 87 27 40 79 70 123 70 17 0 46 -8 65 -18z m454 -2
c105 -51 118 -181 25 -249 -70 -52 -163 -31 -206 45 -45 78 -18 169 61 205 52
24 70 24 120 -1z"/>
<path d="M846 3748 c-269 -30 -507 -210 -615 -464 -54 -126 -72 -215 -78 -385
-11 -290 28 -471 173 -812 109 -257 132 -357 159 -703 44 -574 157 -916 376
-1137 117 -117 244 -155 346 -104 58 30 93 68 130 141 53 104 76 203 133 566
26 165 64 332 90 403 26 68 75 126 132 155 142 71 277 -44 337 -287 17 -66 51
-264 67 -386 13 -100 47 -267 70 -341 28 -94 66 -158 120 -202 50 -41 102 -55
185 -50 204 15 389 237 507 609 73 228 94 373 112 749 9 199 13 237 39 330 31
109 34 118 125 340 30 74 54 136 52 137 -1 1 -47 -11 -103 -28 l-100 -31 -36
-87 c-117 -278 -141 -390 -157 -731 -12 -242 -15 -282 -41 -420 -35 -192 -103
-375 -184 -500 -47 -72 -149 -174 -190 -190 -49 -19 -92 -12 -120 18 -42 44
-59 118 -119 502 -57 359 -89 476 -163 588 -130 196 -389 227 -562 67 -113
-105 -161 -234 -215 -575 -68 -428 -94 -532 -145 -588 -53 -58 -129 -36 -219
63 -172 188 -281 563 -302 1035 -13 290 -45 440 -144 675 -75 176 -125 313
-154 420 -24 92 -26 116 -27 300 0 183 2 206 23 275 90 284 284 461 524 476
196 13 349 -26 643 -163 239 -112 317 -135 495 -147 84 -6 212 12 232 32 5 5
-18 15 -54 22 -35 7 -99 25 -144 40 -138 47 -174 73 -116 85 37 8 63 16 247
73 182 57 291 71 416 53 41 -6 82 -13 90 -16 11 -4 17 11 27 67 20 122 23 112
-33 120 -132 17 -332 3 -470 -34 -44 -12 -134 -44 -200 -71 -139 -57 -215 -77
-304 -77 -53 0 -76 6 -150 41 -193 91 -297 124 -452 144 -124 16 -137 17 -253
3z"/>
<path d="M5312 3385 c-107 -50 -163 -133 -170 -255 -3 -54 1 -88 13 -120 9
-25 18 -52 21 -60 2 -9 -37 -61 -93 -126 -54 -61 -123 -139 -153 -174 -30 -36
-100 -116 -155 -180 -55 -63 -138 -159 -184 -213 l-84 -97 -51 7 c-99 15 -180
8 -239 -21 -68 -33 -140 -109 -174 -182 -23 -50 -25 -65 -21 -147 3 -69 10
-103 26 -134 21 -41 22 -43 4 -61 -10 -10 -42 -47 -71 -82 -260 -313 -384
-451 -400 -444 -9 4 -42 9 -73 12 -113 9 -214 -54 -265 -165 -47 -102 -21
-224 64 -305 101 -96 252 -99 357 -6 88 76 118 192 80 303 -15 45 -15 47 8 75
36 44 290 343 311 365 10 11 42 48 70 83 28 34 57 62 64 62 8 0 30 -7 51 -16
23 -10 66 -15 116 -15 66 0 87 5 137 30 l59 30 270 -212 c225 -177 268 -215
263 -232 -3 -11 -7 -54 -10 -95 -7 -105 19 -172 92 -239 85 -77 192 -105 291
-76 123 35 202 118 230 241 16 72 16 80 0 137 -26 93 -61 144 -128 188 -107
69 -205 75 -315 19 l-57 -29 -264 212 c-242 194 -263 213 -258 237 28 116 29
146 12 215 -9 38 -26 81 -37 96 -10 15 -19 30 -19 34 0 4 24 35 53 69 30 34
80 93 112 131 33 39 64 75 70 81 5 6 106 122 223 257 118 136 216 247 219 247
2 0 27 -7 54 -16 69 -23 172 -15 236 18 64 34 128 113 149 185 44 152 -23 297
-171 367 -77 36 -186 37 -263 1z"/>
</g>
</svg>
